<svg aria-hidden="true" style="position: absolute; width: 0; height: 0; overflow: hidden;" version="1.1" xmlns="http://www.w3.org/2000/svg" xmlns:xlink="http://www.w3.org/1999/xlink">
  <defs>
    <symbol id="icon-joker" viewBox="0 0 20 20">
      <g clip-path="url(#clip0_387_785)">
        <g clip-path="url(#clip1_387_785)">
          <path d="M6.42093 13.3096H13.579V15.061H6.42093V13.3096Z" fill="currentColor"/>
          <path d="M18.055 8.93735C18.0336 8.93735 18.0124 8.93804 17.9913 8.93919C17.6531 7.05689 16.0071 5.62862 14.0275 5.62862C11.8032 5.62862 9.99999 7.43182 9.99999 9.65614C9.99999 7.43182 8.19683 5.62866 5.97251 5.62866C3.99289 5.62866 2.34688 7.05696 2.00871 8.93922C1.98761 8.93807 1.96641 8.93739 1.94503 8.93739C1.31264 8.93735 0.799988 9.45 0.799988 10.0824C0.799988 10.7148 1.31264 11.2274 1.94503 11.2274C2.57742 11.2274 3.09007 10.7148 3.09007 10.0824C3.09007 9.48939 2.63927 9.00168 2.06168 8.94325C2.35946 8.05692 3.19634 7.41817 4.183 7.41817C5.419 7.41817 6.42097 8.42014 6.42097 9.65614V12.2315H13.5791V9.65614C13.5791 8.42014 14.5811 7.41817 15.817 7.41817C16.8036 7.41817 17.6406 8.05692 17.9383 8.94325C17.3607 9.00168 16.9099 9.48939 16.9099 10.0824C16.9099 10.7148 17.4226 11.2274 18.055 11.2274C18.6874 11.2274 19.2 10.7148 19.2 10.0824C19.2 9.45 18.6873 8.93735 18.055 8.93735Z" fill="currentColor"/>
          <path d="M9.99999 6.51693C10.1284 6.35284 10.2676 6.19557 10.4173 6.04589C10.7152 5.74797 11.0435 5.49156 11.3951 5.2792C11.0922 4.83254 10.5804 4.53896 9.99999 4.53896C9.41960 4.53896 8.90781 4.83250 8.60486 5.2792C8.95647 5.49152 9.28480 5.74797 9.58272 6.04589C9.73240 6.19557 9.87155 6.35284 9.99999 6.51693Z" fill="currentColor"/>
        </g>
      </g>
      <defs>
        <clipPath id="clip0_387_785">
          <rect width="18.4" height="18.4" fill="white" transform="translate(0.799988 0.799999)"/>
        </clipPath>
        <clipPath id="clip1_387_785">
          <rect width="18.4" height="18.4" fill="white" transform="translate(0.799988 0.599998)"/>
        </clipPath>
      </defs>
    </symbol>

    <symbol id="icon-coin" viewBox="0 0 20 20">
        <path fill-rule="evenodd" clip-rule="evenodd" d="M19 10.0001C19 11.9767 18.3628 13.8044 17.2827 15.2892C16.1775 16.8081 14.6088 17.968 12.7844 18.561C11.9077 18.846 10.9718 19 10 19C9.02824 19 8.09707 18.8468 7.22222 18.5632C5.39728 17.9716 3.82783 16.8129 2.72165 15.295C1.64024 13.8111 1.00164 11.9838 1 10.0075V10.0001C1 8.0261 1.63541 6.20064 2.71302 4.71699C3.81684 3.19696 5.38464 2.03579 7.20845 1.44128C8.08731 1.15487 9.02557 1 10 1C10.9744 1 11.8978 1.1524 12.7706 1.4345C14.5961 2.02459 16.1665 3.18196 17.2739 4.6989C18.3566 6.18204 18.9967 8.00883 18.9999 9.98505C19 9.99008 19 9.99502 19 10.0001Z" fill="url(#paint0_radial_0_2753)"/>
        <path d="M12.7706 1.43451L11.8224 4.3681C12.998 4.74804 14.0497 5.51119 14.7838 6.51676L17.2739 4.69891C16.1665 3.18196 14.5961 2.0246 12.7706 1.43451ZM7.20845 1.44129C5.38464 2.0358 3.81684 3.19697 2.71302 4.717L5.20747 6.52858C5.93917 5.52115 6.98904 4.75543 8.16387 4.37252L7.20845 1.44129ZM18.9999 9.98506L15.917 9.99122V10.0001C15.917 11.2598 15.5271 12.4615 14.7895 13.4754L17.2827 15.2892C18.3628 13.8044 19 11.9767 19 10.0001C19 9.99502 19 9.99009 18.9999 9.98506ZM4.083 10.005L1 10.0075C1.00164 11.9838 1.64024 13.8111 2.72165 15.295L5.21323 13.4792C4.47485 12.4661 4.08403 11.2647 4.083 10.005ZM11.8314 15.629C11.2434 15.8201 10.6272 15.917 10 15.917C9.37282 15.917 8.75961 15.8206 8.17291 15.6305L7.22222 18.5632C8.09707 18.8468 9.0307 19 10 19C10.9693 19 11.9077 18.846 12.7844 18.561L11.8314 15.629Z" fill="#025FFA"/>
        <path d="M12.7706 1.43451L11.8224 4.3681C12.998 4.74804 14.0497 5.51119 14.7838 6.51676L17.2739 4.69891C16.1665 3.18196 14.5961 2.0246 12.7706 1.43451ZM7.20845 1.44129C5.38464 2.0358 3.81684 3.19697 2.71302 4.717L5.20747 6.52858C5.93917 5.52115 6.98904 4.75543 8.16387 4.37252L7.20845 1.44129ZM18.9999 9.98506L15.917 9.99122V10.0001C15.917 11.2598 15.5271 12.4615 14.7895 13.4754L17.2827 15.2892C18.3628 13.8044 19 11.9767 19 10.0001C19 9.99502 19 9.99009 18.9999 9.98506ZM4.083 10.005L1 10.0075C1.00164 11.9838 1.64024 13.8111 2.72165 15.295L5.21323 13.4792C4.47485 12.4661 4.08403 11.2647 4.083 10.005ZM11.8314 15.629C11.2434 15.8201 10.6272 15.917 10 15.917C9.37282 15.917 8.75961 15.8206 8.17291 15.6305L7.22222 18.5632C8.09707 18.8468 9.0307 19 10 19C10.9693 19 11.9077 18.846 12.7844 18.561L11.8314 15.629Z" fill="url(#paint1_linear_0_2753)"/>
        <path d="M8.25132 8.45446C8.22856 8.42366 8.25086 8.3804 8.2895 8.3804H13.6225C13.6517 8.3804 13.6739 8.40628 13.6691 8.43469L13.4487 9.73491C13.4449 9.75737 13.4252 9.77382 13.4021 9.77382H9.25044C9.23535 9.77382 9.22116 9.76671 9.21227 9.75468L8.25132 8.45446Z" fill="#025FFA"/>
        <path d="M8.25132 8.45446C8.22856 8.42366 8.25086 8.3804 8.2895 8.3804H13.6225C13.6517 8.3804 13.6739 8.40628 13.6691 8.43469L13.4487 9.73491C13.4449 9.75737 13.4252 9.77382 13.4021 9.77382H9.25044C9.23535 9.77382 9.22116 9.76671 9.21227 9.75468L8.25132 8.45446Z" fill="url(#paint2_linear_0_2753)"/>
        <path d="M11.7488 11.5455C11.7716 11.5763 11.7493 11.6196 11.7106 11.6196H6.3776C6.3484 11.6196 6.3262 11.5937 6.33101 11.5653L6.55141 10.2651C6.55522 10.2426 6.57492 10.2262 6.59801 10.2262H10.7497C10.7648 10.2262 10.7789 10.2333 10.7878 10.2453L11.7488 11.5455Z" fill="#025FFA"/>
        <path d="M11.7488 11.5455C11.7716 11.5763 11.7493 11.6196 11.7106 11.6196H6.3776C6.3484 11.6196 6.3262 11.5937 6.33101 11.5653L6.55141 10.2651C6.55522 10.2426 6.57492 10.2262 6.59801 10.2262H10.7497C10.7648 10.2262 10.7789 10.2333 10.7878 10.2453L11.7488 11.5455Z" fill="url(#paint3_linear_0_2753)"/>
        <defs>
        <radialGradient id="paint0_radial_0_2753" cx="0" cy="0" r="1" gradientUnits="userSpaceOnUse" gradientTransform="translate(1.87943 -2.672) rotate(55.2766) scale(42.868 58.6954)">
        <stop offset="0.124131" stop-color="#253743"/>
        <stop offset="0.657125" stop-color="#030C18"/>
        </radialGradient>
        <linearGradient id="paint1_linear_0_2753" x1="3.16514" y1="4.10629" x2="16.291" y2="16.4471" gradientUnits="userSpaceOnUse">
        <stop stop-color="#C9FF6B"/>
        <stop offset="1" stop-color="#8CCF18"/>
        </linearGradient>
        <linearGradient id="paint2_linear_0_2753" x1="7.21318" y1="8.87309" x2="9.10784" y2="12.8119" gradientUnits="userSpaceOnUse">
        <stop stop-color="#C9FF6B"/>
        <stop offset="1" stop-color="#8CCF18"/>
        </linearGradient>
        <linearGradient id="paint3_linear_0_2753" x1="7.21318" y1="8.87309" x2="9.10784" y2="12.8119" gradientUnits="userSpaceOnUse">
        <stop stop-color="#C9FF6B"/>
        <stop offset="1" stop-color="#8CCF18"/>
        </linearGradient>
        </defs>
    </symbol>

    <symbol id="icon-arrow-split" viewBox="0 0 16 8">
      <path d="M4.18774 0.584761C4.13812 0.516705 4.18673 0.421104 4.27096 0.421104H15.897C15.9607 0.421104 16.0091 0.478286 15.9986 0.541075L15.5181 3.41423C15.5098 3.46386 15.4668 3.50023 15.4165 3.50023H6.36583C6.33293 3.50023 6.302 3.4845 6.28262 3.45792L4.18774 0.584761Z" fill="currentColor"/>
      <path d="M11.8123 7.41524C11.8619 7.4833 11.8133 7.5789 11.729 7.5789H0.10301C0.0393489 7.5789 -0.00906401 7.52172 0.00143613 7.45893L0.481912 4.58577C0.490212 4.53614 0.533164 4.49977 0.583486 4.49977H9.63417C9.66707 4.49977 9.698 4.5155 9.71738 4.54209L11.8123 7.41524Z" fill="currentColor"/>
    </symbol>
    
    <symbol id="icon-diamond" viewBox="0 0 16 16">
        <g clip-path="url(#clip0_0_2759)">
        <path d="M8.25361 8.26728L13.2377 7.63903L8.02808 15.5332L8.25361 8.26728Z" fill="url(#paint0_linear_0_2759)"/>
        <path d="M2.75052 7.7299L8.25854 8.26469L8.02808 15.5332L2.75052 7.7299Z" fill="url(#paint1_linear_0_2759)"/>
        <path d="M8.26331 8.33809L2.75052 7.7299L7.98439 -6.10352e-05L8.26331 8.33809Z" fill="url(#paint2_linear_0_2759)"/>
        <path d="M8.25854 8.26469L13.2377 7.63903L7.98439 -6.10352e-05L8.25854 8.26469Z" fill="url(#paint3_linear_0_2759)"/>
        </g>
        <defs>
        <linearGradient id="paint0_linear_0_2759" x1="3.54479" y1="-7.49307" x2="36.3363" y2="60.6979" gradientUnits="userSpaceOnUse">
        <stop offset="0.0917902" stop-color="#A63700"/>
        <stop offset="0.460325" stop-color="#FFDAAE"/>
        <stop offset="0.769926" stop-color="#FFE6C9"/>
        <stop offset="0.912309" stop-color="#FFF6EA"/>
        </linearGradient>
        <linearGradient id="paint1_linear_0_2759" x1="-29.9549" y1="5.20136" x2="30.3149" y2="7.91773" gradientUnits="userSpaceOnUse">
        <stop offset="0.235297" stop-color="#9A3700"/>
        <stop offset="0.655105" stop-color="#F0D3B3"/>
        <stop offset="0.982596" stop-color="#FFFBF7"/>
        </linearGradient>
        <linearGradient id="paint2_linear_0_2759" x1="1.61608" y1="-17.1467" x2="27.0193" y2="-0.165488" gradientUnits="userSpaceOnUse">
        <stop stop-color="#79320F"/>
        <stop offset="0.570446" stop-color="#D18E63"/>
        <stop offset="0.839655" stop-color="#FFBD8F"/>
        <stop offset="1" stop-color="#FFF2EA"/>
        </linearGradient>
        <linearGradient id="paint3_linear_0_2759" x1="14.4622" y1="4.19046" x2="0.468007" y2="9.61315" gradientUnits="userSpaceOnUse">
        <stop offset="0.0456114" stop-color="#FFF8F1"/>
        <stop offset="0.493043" stop-color="#FFBD8F"/>
        <stop offset="0.866476" stop-color="#79320F"/>
        </linearGradient>
        <clipPath id="clip0_0_2759">
        <rect width="16" height="16" fill="white"/>
        </clipPath>
        </defs>
    </symbol>
  </defs>
</svg>